<svg width="169" height="60" viewBox="0 0 169 60" fill="none" xmlns="http://www.w3.org/2000/svg">
<rect x="30" y="57.75" width="39.2444" height="39.2444" rx="4" transform="rotate(-135 30 57.75)" fill="white"/>
<path d="M24.2584 20.2501H20.9698C20.108 20.2501 19.6498 21.2672 20.2208 21.9127L26.7889 29.3374C27.1235 29.7157 27.1235 30.2842 26.7889 30.6625L20.2207 38.0874C19.6498 38.7329 20.108 39.75 20.9697 39.75H24.2584C24.5684 39.75 24.8609 39.6062 25.0502 39.3607L28.8137 34.4814C29.2129 33.9639 29.993 33.9621 30.3945 34.4778L34.1997 39.3644C34.3892 39.6077 34.6803 39.75 34.9887 39.75H38.9012C39.7827 39.75 40.233 38.6923 39.622 38.0569L32.5415 30.6931C32.1692 30.306 32.1692 29.694 32.5415 29.3069L39.622 21.9432C40.233 21.3078 39.7827 20.2501 38.9012 20.25L34.9887 20.25C34.6803 20.25 34.3892 20.3923 34.1997 20.6356L30.3945 25.5223C29.993 26.0379 29.2129 26.0361 28.8137 25.5186L25.0502 20.6393C24.8609 20.3939 24.5684 20.2501 24.2584 20.2501Z" fill="#1890FF"/>
<path d="M73.2954 32.2505H67.1885V29.0439H73.2954C74.3589 29.0439 75.2183 28.8721 75.8735 28.5283C76.5288 28.1846 77.0068 27.7119 77.3076 27.1104C77.6191 26.498 77.7749 25.7998 77.7749 25.0156C77.7749 24.2744 77.6191 23.5815 77.3076 22.937C77.0068 22.2817 76.5288 21.7554 75.8735 21.3579C75.2183 20.9604 74.3589 20.7617 73.2954 20.7617H68.4292V41H64.3848V17.5391H73.2954C75.1108 17.5391 76.6523 17.8613 77.9199 18.5059C79.1982 19.1396 80.1704 20.0205 80.8364 21.1484C81.5024 22.2656 81.8354 23.5439 81.8354 24.9834C81.8354 26.498 81.5024 27.7979 80.8364 28.8828C80.1704 29.9678 79.1982 30.8003 77.9199 31.3804C76.6523 31.9604 75.1108 32.2505 73.2954 32.2505ZM89.1386 26.8848V41H85.2553V23.5654H88.9614L89.1386 26.8848ZM94.4721 23.4526L94.4399 27.062C94.2036 27.019 93.9458 26.9868 93.6665 26.9653C93.3979 26.9438 93.1294 26.9331 92.8608 26.9331C92.1948 26.9331 91.6093 27.0298 91.1045 27.2231C90.5996 27.4058 90.1753 27.6743 89.8315 28.0288C89.4985 28.3726 89.2407 28.7915 89.0581 29.2856C88.8755 29.7798 88.768 30.333 88.7358 30.9453L87.8496 31.0098C87.8496 29.9141 87.957 28.8989 88.1718 27.9644C88.3867 27.0298 88.7089 26.208 89.1386 25.499C89.5791 24.79 90.1269 24.2368 90.7822 23.8394C91.4482 23.4419 92.2163 23.2432 93.0864 23.2432C93.3227 23.2432 93.5752 23.2646 93.8437 23.3076C94.123 23.3506 94.3325 23.3989 94.4721 23.4526ZM95.9101 32.4761V32.1055C95.9101 30.8486 96.0927 29.6831 96.4579 28.6089C96.8232 27.5239 97.3495 26.584 98.037 25.7891C98.7353 24.9834 99.5839 24.3604 100.583 23.9199C101.593 23.4688 102.731 23.2432 103.999 23.2432C105.277 23.2432 106.416 23.4688 107.415 23.9199C108.425 24.3604 109.279 24.9834 109.977 25.7891C110.675 26.584 111.207 27.5239 111.572 28.6089C111.937 29.6831 112.12 30.8486 112.12 32.1055V32.4761C112.12 33.7329 111.937 34.8984 111.572 35.9727C111.207 37.0469 110.675 37.9868 109.977 38.7925C109.279 39.5874 108.43 40.2104 107.431 40.6616C106.432 41.1021 105.299 41.3223 104.031 41.3223C102.753 41.3223 101.609 41.1021 100.599 40.6616C99.6 40.2104 98.7514 39.5874 98.0531 38.7925C97.3549 37.9868 96.8232 37.0469 96.4579 35.9727C96.0927 34.8984 95.9101 33.7329 95.9101 32.4761ZM99.7934 32.1055V32.4761C99.7934 33.2603 99.8739 34.0015 100.035 34.6997C100.196 35.3979 100.449 36.0103 100.792 36.5366C101.136 37.063 101.577 37.4766 102.114 37.7773C102.651 38.0781 103.29 38.2285 104.031 38.2285C104.751 38.2285 105.374 38.0781 105.9 37.7773C106.437 37.4766 106.878 37.063 107.222 36.5366C107.565 36.0103 107.818 35.3979 107.979 34.6997C108.151 34.0015 108.237 33.2603 108.237 32.4761V32.1055C108.237 31.332 108.151 30.6016 107.979 29.9141C107.818 29.2158 107.56 28.5981 107.205 28.061C106.862 27.5239 106.421 27.105 105.884 26.8042C105.358 26.4927 104.729 26.3369 103.999 26.3369C103.268 26.3369 102.635 26.4927 102.098 26.8042C101.571 27.105 101.136 27.5239 100.792 28.061C100.449 28.5981 100.196 29.2158 100.035 29.9141C99.8739 30.6016 99.7934 31.332 99.7934 32.1055ZM115.733 23.5654H119.633V42.5146C119.633 43.707 119.429 44.7114 119.02 45.5278C118.612 46.355 118.011 46.978 117.216 47.397C116.421 47.8267 115.449 48.0415 114.299 48.0415C113.955 48.0415 113.601 48.0146 113.236 47.9609C112.86 47.918 112.505 47.8535 112.172 47.7676L112.188 44.7383C112.414 44.7812 112.656 44.8135 112.913 44.835C113.161 44.8672 113.397 44.8833 113.622 44.8833C114.084 44.8833 114.471 44.8027 114.783 44.6416C115.094 44.4805 115.33 44.228 115.492 43.8843C115.653 43.5405 115.733 43.084 115.733 42.5146V23.5654ZM115.395 18.9893C115.395 18.3984 115.594 17.9097 115.991 17.5229C116.389 17.1255 116.931 16.9268 117.619 16.9268C118.317 16.9268 118.859 17.1255 119.246 17.5229C119.643 17.9097 119.842 18.3984 119.842 18.9893C119.842 19.5693 119.643 20.0527 119.246 20.4395C118.859 20.8262 118.317 21.0195 117.619 21.0195C116.931 21.0195 116.389 20.8262 115.991 20.4395C115.594 20.0527 115.395 19.5693 115.395 18.9893ZM131.673 41.3223C130.384 41.3223 129.219 41.1128 128.177 40.6938C127.145 40.2642 126.264 39.668 125.534 38.9053C124.814 38.1426 124.261 37.2456 123.874 36.2144C123.488 35.1831 123.294 34.0713 123.294 32.8789V32.2344C123.294 30.8701 123.493 29.6348 123.89 28.5283C124.288 27.4219 124.841 26.4766 125.55 25.6924C126.259 24.8975 127.097 24.2905 128.064 23.8716C129.031 23.4526 130.078 23.2432 131.206 23.2432C132.452 23.2432 133.542 23.4526 134.477 23.8716C135.411 24.2905 136.185 24.8813 136.797 25.644C137.42 26.396 137.882 27.293 138.183 28.335C138.494 29.377 138.65 30.5264 138.65 31.7832V33.4429H125.18V30.6553H134.815V30.3491C134.794 29.6509 134.654 28.9956 134.396 28.3833C134.149 27.771 133.768 27.2769 133.252 26.9009C132.737 26.5249 132.049 26.3369 131.19 26.3369C130.545 26.3369 129.971 26.4766 129.466 26.7559C128.972 27.0244 128.558 27.4165 128.225 27.9321C127.892 28.4478 127.634 29.0708 127.452 29.8013C127.28 30.521 127.194 31.332 127.194 32.2344V32.8789C127.194 33.6416 127.296 34.3506 127.5 35.0059C127.715 35.6504 128.026 36.2144 128.434 36.6978C128.843 37.1812 129.337 37.5625 129.917 37.8418C130.497 38.1104 131.158 38.2446 131.899 38.2446C132.833 38.2446 133.666 38.0566 134.396 37.6807C135.127 37.3047 135.761 36.7729 136.298 36.0854L138.344 38.0674C137.968 38.6152 137.479 39.1416 136.878 39.6465C136.276 40.1406 135.54 40.5435 134.67 40.855C133.811 41.1665 132.812 41.3223 131.673 41.3223ZM148.967 38.2285C149.6 38.2285 150.17 38.105 150.675 37.8579C151.19 37.6001 151.604 37.2456 151.915 36.7944C152.238 36.3433 152.415 35.8223 152.447 35.2314H156.105C156.083 36.3594 155.75 37.3853 155.106 38.3091C154.461 39.2329 153.607 39.9688 152.544 40.5166C151.48 41.0537 150.304 41.3223 149.015 41.3223C147.683 41.3223 146.523 41.0967 145.534 40.6455C144.546 40.1836 143.724 39.5498 143.069 38.7441C142.414 37.9385 141.92 37.0093 141.587 35.9565C141.264 34.9038 141.103 33.7759 141.103 32.5728V32.0088C141.103 30.8057 141.264 29.6777 141.587 28.625C141.92 27.5615 142.414 26.627 143.069 25.8213C143.724 25.0156 144.546 24.3872 145.534 23.936C146.523 23.4741 147.678 23.2432 148.999 23.2432C150.395 23.2432 151.62 23.5225 152.673 24.0811C153.725 24.6289 154.553 25.397 155.154 26.3853C155.766 27.3628 156.083 28.5015 156.105 29.8013H152.447C152.415 29.1567 152.254 28.5767 151.964 28.061C151.684 27.5347 151.287 27.1157 150.771 26.8042C150.266 26.4927 149.659 26.3369 148.95 26.3369C148.166 26.3369 147.516 26.498 147.001 26.8203C146.485 27.1318 146.082 27.5615 145.792 28.1094C145.502 28.6465 145.293 29.2534 145.164 29.9302C145.046 30.5962 144.987 31.2891 144.987 32.0088V32.5728C144.987 33.2925 145.046 33.9907 145.164 34.6675C145.282 35.3442 145.486 35.9512 145.776 36.4883C146.077 37.0146 146.485 37.439 147.001 37.7612C147.516 38.0728 148.172 38.2285 148.967 38.2285ZM167.243 23.5654V26.4014H157.414V23.5654H167.243ZM160.25 19.2954H164.133V36.1821C164.133 36.7192 164.208 37.1328 164.359 37.4229C164.52 37.7021 164.74 37.8901 165.019 37.9868C165.299 38.0835 165.626 38.1318 166.002 38.1318C166.271 38.1318 166.529 38.1157 166.776 38.0835C167.023 38.0513 167.221 38.019 167.372 37.9868L167.388 40.9517C167.066 41.0483 166.69 41.1343 166.26 41.2095C165.841 41.2847 165.358 41.3223 164.81 41.3223C163.918 41.3223 163.129 41.1665 162.441 40.855C161.754 40.5327 161.217 40.0117 160.83 39.292C160.443 38.5723 160.25 37.6162 160.25 36.4238V19.2954Z" fill="black" fill-opacity="0.85"/>
</svg>
