<svg width="60" height="60" viewBox="0 0 60 60" fill="none" xmlns="http://www.w3.org/2000/svg">
<rect x="30" y="57.75" width="39.2444" height="39.2444" rx="4" transform="rotate(-135 30 57.75)" fill="white"/>
<path d="M24.2584 20.2501H20.9698C20.108 20.2501 19.6498 21.2672 20.2208 21.9127L26.7889 29.3374C27.1235 29.7157 27.1235 30.2842 26.7889 30.6625L20.2207 38.0874C19.6498 38.7329 20.108 39.75 20.9697 39.75H24.2584C24.5684 39.75 24.8609 39.6062 25.0502 39.3607L28.8137 34.4814C29.2129 33.9639 29.993 33.9621 30.3945 34.4778L34.1997 39.3644C34.3892 39.6077 34.6803 39.75 34.9887 39.75H38.9012C39.7827 39.75 40.233 38.6923 39.622 38.0569L32.5415 30.6931C32.1692 30.306 32.1692 29.694 32.5415 29.3069L39.622 21.9432C40.233 21.3078 39.7827 20.2501 38.9012 20.25L34.9887 20.25C34.6803 20.25 34.3892 20.3923 34.1997 20.6356L30.3945 25.5223C29.993 26.0379 29.2129 26.0361 28.8137 25.5186L25.0502 20.6393C24.8609 20.3939 24.5684 20.2501 24.2584 20.2501Z" fill="#1890FF"/>
</svg>
