<svg width="1440" height="900" viewBox="0 0 1440 900" fill="none" xmlns="http://www.w3.org/2000/svg">
<g clip-path="url(#clip0_99_17893)">
<rect width="1440" height="900" fill="#F0F2F5"/>
<g clip-path="url(#clip1_99_17893)">
<path d="M0 373.6L180.8 218.4L360 362.4L540.8 367.2L720 274.4L900.8 269.6L1080 416.8L1260.8 410.4L1440 400.8V901.6H1260.8H1080H900.8H720H540.8H360H180.8H0V373.6Z" fill="#92CEFF"/>
<path d="M0 458.4L180.8 200.8L360 320.8L540.8 415.2L720 271.2L900.8 440.8L1080 469.6L1260.8 460L1440 220V901.6H1260.8H1080H900.8H720H540.8H360H180.8H0V458.4Z" fill="#82C6FF"/>
<path opacity="0.2" d="M0 324L180.8 492L360 405.6L540.8 407.2L720 480.8L900.8 271.2L1080 335.2L1260.8 464.8L1440 412V901.6H1260.8H1080H900.8H720H540.8H360H180.8H0V324Z" fill="#72BDFF"/>
<path d="M0 370.4L180.8 332L360 328.8L540.8 500L720 487.2L900.8 455.2L1080 498.4L1260.8 394.4L1440 368.8V901.6H1260.8H1080H900.8H720H540.8H360H180.8H0V370.4Z" fill="#61B5FF"/>
<path d="M0 498.4L180.8 432.8L360 396L540.8 428L720 573.6L900.8 511.2L1080 562.4L1260.8 396L1440 517.6V901.6H1260.8H1080H900.8H720H540.8H360H180.8H0V498.4Z" fill="#50ACFF"/>
<path d="M0 597.6L180.8 522.4L360 629.6L540.8 556L720 626.4L900.8 562.4L1080 477.6L1260.8 487.2L1440 520.8V901.6H1260.8H1080H900.8H720H540.8H360H180.8H0V597.6Z" fill="#3DA3FF"/>
<path d="M0 501.6L180.8 656.8L360 621.6L540.8 538.4L720 645.6L900.8 588L1080 586.4L1260.8 658.4L1440 656.8V901.6H1260.8H1080H900.8H720H540.8H360H180.8H0V501.6Z" fill="#269AFF"/>
<path d="M0 708L180.8 621.6L360 564L540.8 562.4L720 628L900.8 560.8L1080 632.8L1260.8 612L1440 578.4V901.6H1260.8H1080H900.8H720H540.8H360H180.8H0V708Z" fill="#0091FF"/>
<path d="M0 618.4L180.8 642.4L360 664.8L540.8 616.8L720 687.2L900.8 693.6L1080 629.6L1260.8 652L1440 743.2V901.6H1260.8H1080H900.8H720H540.8H360H180.8H0V618.4Z" fill="#0087FF"/>
<path d="M0 749.6H180.8L360 789.6L540.8 692L720 740L900.8 788L1080 743.2L1260.8 767.2L1440 730.4V901.6H1260.8H1080H900.8H720H540.8H360H180.8H0V749.6Z" fill="#007DFF"/>
<path d="M0 784.8L180.8 748L360 800.8L540.8 812L720 826.4L900.8 741.6L1080 815.2L1260.8 783.2L1440 778.4V901.6H1260.8H1080H900.8H720H540.8H360H180.8H0V784.8Z" fill="#0072FF"/>
<path d="M0 860L180.8 813.6L360 845.6L540.8 799.2L720 840.8L900.8 852L1080 855.2L1260.8 856.8L1440 813.6V901.6H1260.8H1080H900.8H720H540.8H360H180.8H0V860Z" fill="#0066FF"/>
</g>
</g>
<defs>
<clipPath id="clip0_99_17893">
<rect width="1440" height="900" fill="white"/>
</clipPath>
<clipPath id="clip1_99_17893">
<rect width="1440" height="960" fill="white" transform="translate(0 -60)"/>
</clipPath>
</defs>
</svg>
